<?xml version="1.0" standalone="no"?>
<!DOCTYPE svg PUBLIC "-//W3C//DTD SVG 20010904//EN"
 "http://www.w3.org/TR/2001/REC-SVG-20010904/DTD/svg10.dtd">
<svg version="1.0" xmlns="http://www.w3.org/2000/svg"
 width="418.000000pt" height="418.000000pt" viewBox="0 0 418.000000 418.000000"
 preserveAspectRatio="xMidYMid meet">
<metadata>
Created by potrace 1.14, written by Peter Selinger 2001-2017
</metadata>
<g transform="translate(0.000000,418.000000) scale(0.100000,-0.100000)"
fill="#000000" stroke="none">
<path d="M0 2090 l0 -2090 2090 0 2090 0 0 2090 0 2090 -2090 0 -2090 0 0
-2090z m2918 757 l2 -307 35 35 c52 51 122 69 254 63 95 -4 113 -8 175 -38 91
-45 175 -129 221 -223 65 -134 69 -165 70 -522 l0 -320 -137 -3 -137 -3 -3
328 -3 328 -27 50 c-51 97 -124 145 -220 145 -69 0 -131 -31 -167 -83 -54 -80
-55 -88 -59 -439 l-3 -328 -135 0 -134 0 0 815 0 816 133 -3 132 -3 3 -308z
m-1806 -208 c80 -17 157 -57 216 -113 86 -81 87 -76 -34 -146 l-105 -61 -41
36 c-51 46 -95 65 -152 65 -92 0 -156 -45 -156 -110 0 -41 29 -66 97 -85 238
-66 387 -154 438 -260 30 -63 26 -177 -8 -248 -35 -70 -101 -131 -185 -170
-156 -71 -397 -35 -532 80 -38 33 -96 110 -88 118 5 5 181 82 204 89 15 5 31
-2 57 -27 40 -36 115 -67 162 -67 86 0 155 45 155 100 0 64 -22 79 -195 125
-179 48 -284 116 -336 216 -35 68 -32 184 6 262 47 95 138 165 250 193 64 16
179 17 247 3z m1067 -10 c77 -18 171 -71 238 -136 36 -34 63 -68 61 -75 -3 -7
-56 -40 -119 -72 l-115 -60 -35 27 c-53 40 -102 57 -166 57 -101 0 -187 -62
-239 -174 -58 -125 -12 -298 102 -376 92 -64 201 -61 291 7 33 25 50 33 62 26
114 -57 221 -118 221 -127 0 -6 -29 -39 -65 -73 -216 -207 -529 -203 -739 10
-118 119 -169 246 -168 417 0 192 82 354 234 466 120 88 279 119 437 83z"/>
</g>
</svg>
